<svg xmlns="http://www.w3.org/2000/svg" data-name="Layer 1" width="1101.6482" height="863.9431" viewBox="0 0 1101.6482 863.9431">
  <path d="M503.8013 614.8988l.0056-1.8476a280.776 280.776 0 0011.0854-.1875l.068 1.846c-3.707.1368-7.4611.2003-11.159.1891zm-11.1544-.2503a283.115 283.115 0 01-11.1358-.6932l.1513-1.8417c3.6721.3025 7.3941.534 11.0627.6894zm33.4535-.5717l-.141-1.8427a275.316 275.316 0 0011.0315-1.0708l.216 1.8357c-3.6773.4318-7.414.794-11.1065 1.0778zm-55.6898-1.2593a280.9178 280.9178 0 01-11.0459-1.5833l.2992-1.8232a277.1645 277.1645 0 0010.9719 1.5722zm77.8495-1.3422l-.289-1.8251a275.7263 275.7263 0 0010.9104-1.9545l.3621 1.8109a276.0014 276.0014 0 01-10.9835 1.9687zm-99.868-2.269a278.441 278.441 0 01-10.8823-2.4705l.4452-1.7938a273.4874 273.4874 0 0010.8093 2.454zm121.7476-2.1117l-.4362-1.7949a273.5173 273.5173 0 0010.7166-2.832l.5084 1.7771a276.0531 276.0531 0 01-10.7888 2.8498zm-143.4036-3.2683a279.3504 279.3504 0 01-10.6463-3.344l.5894-1.7518a275.8836 275.8836 0 0010.5751 3.322zm164.8558-2.8693l-.5798-1.7538a274.045 274.045 0 0010.4519-3.6918l.651 1.7289a274.6635 274.6635 0 01-10.523 3.7167zm-186.0328-4.2594a277.5532 277.5532 0 01-10.3638-4.2082l.7296-1.6972a273.8958 273.8958 0 0010.2948 4.179zm206.8902-3.5843l-.7198-1.702a275.519 275.519 0 0010.0937-4.513l.7885 1.6716a279.294 279.294 0 01-10.1624 4.5434zM385.013 587.866a275.4185 275.4185 0 01-9.9836-5.0316l.8651-1.6319a275.0007 275.0007 0 009.916 4.997zm247.574-4.248l-.8553-1.6375a277.6795 277.6795 0 009.7047-5.3162l.9204 1.6016a279.9279 279.9279 0 01-9.7699 5.3522zm-267.3264-6.2132a276.4415 276.4415 0 01-9.5394-5.8176l.9939-1.5575a276.0718 276.0718 0 009.4754 5.7796zm286.6463-4.8815l-.9836-1.564a276.6327 276.6327 0 009.2517-6.0819l1.0451 1.5227a276.6597 276.6597 0 01-9.3132 6.1232zm-305.4807-7.131a277.559 277.559 0 01-9.0367-6.562l1.1154-1.4724a278.118 278.118 0 008.9764 6.5186zm323.8575-5.4852l-1.1066-1.4795a276.6342 276.6342 0 008.7398-6.8071l1.1645 1.4346a278.9138 278.9138 0 01-8.7977 6.852zM328.625 551.911a279.7315 279.7315 0 01-8.4777-7.263l1.2296-1.3782a278.3177 278.3177 0 008.422 7.2142zm358.9746-6.057l-1.2206-1.386a278.8936 278.8936 0 008.17-7.4883l1.275 1.3376a280.275 280.275 0 01-8.2244 7.5368zm-375.6313-8.8001a283.4862 283.4862 0 01-7.8662-7.9143l1.3357-1.2767a279.1426 279.1426 0 007.815 7.8618zm391.7744-6.6001l-1.3274-1.2854a277.4189 277.4189 0 007.5488-8.12l1.378 1.2314a281.021 281.021 0 01-7.5994 8.174zm-407.1829-9.534a278.8011 278.8011 0 01-7.2061-8.5156l1.4346-1.1645a274.6267 274.6267 0 007.1576 8.4577zm422.05-7.1137l-1.427-1.1738a278.0439 278.0439 0 006.8776-8.7023l1.4723 1.1163a280.7009 280.7009 0 01-6.923 8.7598zm-436.1135-10.1952a279.2992 279.2992 0 01-6.498-9.059l1.5226-1.047a276.2571 276.2571 0 006.4549 8.9994zm449.6039-7.5982l-1.5158-1.0551a279.426 279.426 0 006.1585-9.2306l1.5575.9939a280.6217 280.6217 0 01-6.2002 9.2918zm-462.23-10.7714a279.6885 279.6885 0 01-5.7476-9.5465l1.6016-.9204a278.2387 278.2387 0 005.709 9.4823zm474.2542-8.0562l-1.5956-.9308a277.8787 277.8787 0 005.3978-9.7013l1.6319.866a278.571 278.571 0 01-5.4341 9.7662zm-485.3585-11.2592a277.7364 277.7364 0 01-4.9572-9.9725l1.6707-.7884a276.9953 276.9953 0 004.924 9.9056zm495.8295-8.4872l-1.6664-.7994a275.628 275.628 0 004.598-10.1108l1.6973.7309a277.9226 277.9226 0 01-4.629 10.1793zm-505.336-11.644a275.6766 275.6766 0 01-4.1338-10.3325l1.7289-.651a274.8228 274.8228 0 004.106 10.262zm514.1794-8.8982l-1.7255-.6606a277.6378 277.6378 0 003.7646-10.4572l1.75.5903a277.5694 277.5694 0 01-3.7891 10.5275zm-522.0353-11.9548a274.7083 274.7083 0 01-3.2928-10.6626l1.7762-.5084a273.8519 273.8519 0 003.2704 10.5903zm529.1756-9.219l-1.7738-.5183a274.2685 274.2685 0 002.8967-10.6991l1.792.446a275.3718 275.3718 0 01-2.9149 10.7714zm-535.3254-12.231a277.4438 277.4438 0 01-2.4178-10.8934l1.8118-.364a275.3981 275.3981 0 002.4009 10.8211zm540.7172-9.4194l-1.8103-.374a275.2235 275.2235 0 002.0204-10.8979l1.8232.3001a277.634 277.634 0 01-2.0333 10.9717zm-545.1096-12.457a278.0282 278.0282 0 01-1.5295-11.053l1.8347-.2158c.432 3.6605.9431 7.3538 1.52 10.9788zm548.7325-9.562l-1.8343-.226a275.8704 275.8704 0 001.1367-11.0248l1.8418.1521a279.539 279.539 0 01-1.1442 11.0987zM228.248 359.4576a279.8651 279.8651 0 01-.6393-11.141l1.846-.0689c.1373 3.6768.3511 7.4002.635 11.067zm553.1904-9.638l-1.8456-.079c.1564-3.6813.2425-7.4096.2546-11.0818l.001-.6121 1.8477.006-.0011.608a284.4797 284.4797 0 01-.2566 11.159zm-552.1788-12.6551l-1.8476-.006.0015-.3103a282.714 282.714 0 01.2439-10.8437l1.8455.0773a281.7993 281.7993 0 00-.2418 10.7765zm550.3815-10.1984a276.1842 276.1842 0 00-.6467-11.0662l1.8426-.1447a279.864 279.864 0 01.6502 11.1402zm-549.4547-11.9475l-1.8417-.1504a279.604 279.604 0 011.1324-11.101l1.8343.2243a277.7225 277.7225 0 00-1.125 11.027zm547.72-10.1494a274.3443 274.3443 0 00-1.5321-10.9771l1.8251-.2922a276.1586 276.1586 0 011.5408 11.0516zm-545.029-11.85l-1.8232-.2983a275.613 275.613 0 012.0224-10.974l1.8094.3713a275.1663 275.1663 0 00-2.0087 10.901zM774.4 282.9849a275.593 275.593 0 00-2.4131-10.818l1.795-.439a276.0646 276.0646 0 012.429 10.8912zm-537.0667-11.677l-1.7934-.4443a276.2803 276.2803 0 012.904-10.7758l1.7739.5168c-1.0297 3.5336-2 7.1346-2.8845 10.7033zm531.8044-9.8527a273.7567 273.7567 0 00-3.2817-10.5872l1.7539-.5825a275.5956 275.5956 0 013.3031 10.6585zm-525.6042-11.427l-1.7514-.5885a277.3713 277.3713 0 013.778-10.5321l1.7263.6588a274.7544 274.7544 0 00-3.7529 10.4618zm518.6126-9.6058a275.5094 275.5094 0 00-4.1173-10.2584l1.7002-.7225a277.3487 277.3487 0 014.146 10.327zm-510.6856-11.1536l-1.6982-.7291a277.3128 277.3128 0 014.6181-10.1838l1.6668.7966a274.795 274.795 0 00-4.5867 10.1163zm502.0382-9.1923a275.8434 275.8434 0 00-4.934-9.8997l1.6357-.8576a274.424 274.424 0 014.968 9.967zM261.0398 209.233l-1.6337-.8633a278.3128 278.3128 0 015.4237-9.7725l1.5974.929a276.1463 276.1463 0 00-5.3874 9.7068zm482.1924-8.752a277.1776 277.1776 0 00-5.7194-9.477l1.5621-.9863a279.5481 279.5481 0 015.758 9.5402zm-471.0313-10.4334l-1.5584-.993a279.1845 279.1845 0 016.1904-9.2986l1.5167 1.0546a276.9377 276.9377 0 00-6.1487 9.237zm459.2137-8.2858a278.9892 278.9892 0 00-6.4643-8.9918l1.4777-1.1084a278.8857 278.8857 0 016.5075 9.0524zm-446.551-9.9316l-1.4731-1.1145a279.957 279.957 0 016.913-8.768l1.428 1.173a278.0425 278.0425 0 00-6.8678 8.7095zm433.265-7.7883a277.395 277.395 0 00-7.167-8.4496l1.3843-1.2233a278.6876 278.6876 0 017.2156 8.5066zm-419.187-9.3473l-1.379-1.2287a279.9067 279.9067 0 017.59-8.183l1.3291 1.2836a279.299 279.299 0 00-7.5401 8.128zm404.519-7.2612a279.7842 279.7842 0 00-7.824-7.8532l1.2828-1.33a281.6771 281.6771 0 017.8752 7.9056zm-389.1216-8.686l-1.2767-1.3358a281.1068 281.1068 0 018.2167-7.5463l1.2224 1.3852a279.2833 279.2833 0 00-8.1624 7.4969zm373.1658-6.7029a278.102 278.102 0 00-8.4296-7.2051l1.172-1.4284a279.4155 279.4155 0 018.4855 7.2536zm-356.5493-7.9565l-1.1663-1.4329a278.3983 278.3983 0 018.7901-6.862l1.1075 1.4787a276.7247 276.7247 0 00-8.7312 6.8161zm339.4047-6.1115a278.2898 278.2898 0 00-8.9832-6.5091l1.0533-1.5176a280.6858 280.6858 0 019.0444 6.5527zm-321.6766-7.1658l-1.0478-1.5218a278.3798 278.3798 0 019.3073-6.1331l.9855 1.563a275.2114 275.2114 0 00-9.245 6.0919zm303.4529-5.4879a276.0733 276.0733 0 00-9.4827-5.7678l.929-1.5974a280.0579 280.0579 0 019.5457 5.8064zm-284.7283-6.3175l-.9217-1.6016a279.3362 279.3362 0 019.7635-5.362l.8571 1.6365a276.323 276.323 0 00-9.6989 5.327zm265.537-4.8328a276.1397 276.1397 0 00-9.9219-4.9862l.7957-1.6673a276.1118 276.1118 0 019.9886 5.0198zm-245.936-5.4233l-.7898-1.6707a278.9102 278.9102 0 0110.1579-4.5547l.7216 1.7007a275.5095 275.5095 0 00-10.0898 4.5246zm225.8951-4.1442a274.9862 274.9862 0 00-10.2998-4.1683l.6588-1.7264a276.4848 276.4848 0 0110.3683 4.1965zM407.36 80.1124l-.6525-1.7288a276.0474 276.0474 0 0110.5179-3.7281l.5816 1.7539a274.5428 274.5428 0 00-10.447 3.703zm184.78-3.4234a274.3782 274.3782 0 00-10.5787-3.3099l.5164-1.7737a276.4856 276.4856 0 0110.649 3.3317zm-163.7431-3.5568l-.5103-1.7753a275.9727 275.9727 0 0110.7857-2.8638l.438 1.7949a275.5003 275.5003 0 00-10.7134 2.8442zm142.4602-2.6308a273.3894 273.3894 0 00-10.8121-2.4419l.3704-1.8103a276.2986 276.2986 0 0110.885 2.4584zM449.929 67.8817l-.3648-1.811A277.9642 277.9642 0 01460.546 64.09l.2917 1.8242a277.41 277.41 0 00-10.9086 1.9676zm99.2143-1.8245a276.3668 276.3668 0 00-10.9742-1.5606l.2234-1.8342c3.6749.4473 7.3919.976 11.0473 1.5716zm-77.3277-1.6688l-.2178-1.8348a279.0042 279.0042 0 0111.1047-1.09l.1437 1.8417a277.7562 277.7562 0 00-11.0306 1.083zm55.3265-1.0104a278.8313 278.8313 0 00-11.0637-.6767l.0764-1.8465c3.7038.1529 7.4506.382 11.1367.6815zm-33.2292-.7136l-.0698-1.846A283.5096 283.5096 0 01505 60.6158l-.0033 1.8476a282.4411 282.4411 0 00-11.0837.201z" fill="#3f3d56"/>
  <path fill="#f1f1f1" d="M1032.068 458.105L855.972 763.116l-58.213 100.827-11.091-6.402-110.761-63.947-82.683-47.74-300.639-173.568L334.648 0l697.42 458.105z"/>
  <path d="M209.861 580.564c8.8487-36.1548 37.5124-65.2983 73.892-73.773a100.828 100.828 0 0158.1775 3.7395c18.9358 7.1433 35.1776 19.8477 50.2926 33.0068 29.1982 25.4198 57.48 51.8808 92.7504 68.843 31.5044 15.1512 66.9796 21.5859 101.2362 12.5508a105.3243 105.3243 0 0042.1734-21.7334c12.5086-10.8286 21.3096-25.006 27.1484-40.3802 12.2387-32.2249 11.9959-67.4738 21.3396-100.45 4.8154-16.9948 12.4584-33.0493 24.6659-46.0002 12.0683-12.8033 27.428-22.1849 43.7205-28.624 38.6357-15.2697 80.453-14.0316 121.2661-13.4927 38.5723.5094 78.0996-.1552 114.2296-15.3454 16.1-6.7689 31.1293-16.3372 43.008-29.248 12.6543-13.7538 21.0853-30.6685 27.1213-48.2243 3.1159-9.0627 5.5977-18.3225 7.83-27.6378.8308-3.467-4.5126-4.9464-5.3449-1.4735-4.6214 19.2849-10.3655 38.59-20.5267 55.7628a106.897 106.897 0 01-39.1469 38.3068c-34.0411 19.557-74.2273 22.5305-112.6306 22.4448-41.2148-.092-83.3752-3.1593-123.4101 8.7773-32.5799 9.7139-62.5629 29.176-77.6493 60.544-15.0173 31.2248-15.5419 66.6573-23.0178 99.9425-3.713 16.5317-9.2652 32.8078-19.2227 46.686-9.9253 13.8334-24.1403 24.1698-39.8756 30.475-33.6432 13.481-71.1593 9.5268-103.817-4.7716-36.6115-16.0295-65.9368-42.7349-95.5741-68.8097-14.2765-12.5604-29.2916-24.79-46.6192-32.907a105.2615 105.2615 0 00-147.3615 70.318c-.8479 3.4642 4.4959 4.9422 5.3448 1.4735z" fill="#3f3d56"/>
  <path d="M602.4209 716.49h-92.8201a324.6421 324.6421 0 010-110.6701h92.82a199.133 199.133 0 000 110.67z" fill="#ff6584"/>
  <path d="M255.2078 605.6027h92.8201a324.6421 324.6421 0 000-110.6701h-92.82a199.1327 199.1327 0 010 110.67z" fill="currentColor"/>
  <path d="M274.8781 541.4894a22.2184 22.2184 0 0119.2299 1.4456c4.8769 2.7252 9.3013 6.0532 14.961 6.9217a23.1315 23.1315 0 0013.582-2.0755c5.4071-2.6437 8.7446-7.7325 13.3736-11.3824 2.5971-2.0478-1.064-5.6645-3.6363-3.6363-4.521 3.5649-7.745 8.7493-13.2526 10.9396-5.8963 2.3449-11.6357 1.1483-16.9835-1.9328-4.311-2.4836-8.3285-5.3263-13.278-6.4068a27.1544 27.1544 0 00-15.363 1.168c-3.075 1.1432-1.7445 6.1156 1.367 4.9589zM274.8781 566.3448a22.2184 22.2184 0 0119.2299 1.4457c4.8769 2.7252 9.3013 6.0531 14.961 6.9217a23.1315 23.1315 0 0013.582-2.0756c5.4071-2.6436 8.7446-7.7324 13.3736-11.3824 2.5971-2.0478-1.064-5.6644-3.6363-3.6363-4.521 3.5649-7.745 8.7494-13.2526 10.9397-5.8963 2.3448-11.6357 1.1483-16.9835-1.9328-4.311-2.4837-8.3285-5.3263-13.278-6.4069a27.1544 27.1544 0 00-15.3631 1.168c-3.075 1.1432-1.7444 6.1156 1.367 4.9589zM577.1186 638.3399a22.2185 22.2185 0 00-19.2299 1.4456c-4.8769 2.7252-9.3013 6.0532-14.961 6.9217a23.1315 23.1315 0 01-13.582-2.0755c-5.4071-2.6437-8.7446-7.7325-13.3736-11.3824-2.5971-2.0478 1.064-5.6645 3.6363-3.6363 4.521 3.5649 7.745 8.7493 13.2526 10.9396 5.8963 2.3449 11.6356 1.1483 16.9835-1.9327 4.3109-2.4837 8.3285-5.3264 13.278-6.407a27.1544 27.1544 0 0115.3631 1.1682c3.075 1.143 1.7444 6.1155-1.367 4.9588zM577.1186 662.3382a22.2185 22.2185 0 00-19.2299 1.4457c-4.8769 2.7252-9.3013 6.0532-14.961 6.9217a23.1315 23.1315 0 01-13.582-2.0755c-5.4071-2.6437-8.7446-7.7325-13.3736-11.3825-2.5971-2.0477 1.064-5.6644 3.6363-3.6363 4.521 3.565 7.745 8.7494 13.2526 10.9397 5.8963 2.3448 11.6356 1.1483 16.9835-1.9328 4.3109-2.4837 8.3285-5.3263 13.278-6.4069a27.1544 27.1544 0 0115.3631 1.1681c3.075 1.1431 1.7444 6.1155-1.367 4.9588zM577.1186 686.3366a22.2184 22.2184 0 00-19.2299 1.4456c-4.8769 2.7252-9.3013 6.0532-14.961 6.9217a23.1314 23.1314 0 01-13.582-2.0755c-5.4071-2.6437-8.7446-7.7325-13.3736-11.3824-2.5971-2.0478 1.064-5.6645 3.6363-3.6363 4.521 3.5649 7.745 8.7493 13.2526 10.9396 5.8963 2.3449 11.6356 1.1483 16.9835-1.9328 4.3109-2.4836 8.3285-5.3263 13.278-6.4068a27.1544 27.1544 0 0115.3631 1.168c3.075 1.1431 1.7444 6.1156-1.367 4.9589z" fill="#f2f2f2"/>
  <path d="M760.1368 207.9955c-19.8649-33.5655-59.166-35.1298-59.166-35.1298s-38.2966-4.8973-62.8637 46.2233c-22.8984 47.6487-54.5012 93.6544-5.0878 104.8086l8.9255-27.7801 5.5276 29.8483a193.3403 193.3403 0 0021.1421.3614c52.9179-1.7085 103.3141.4998 101.6914-18.4893-2.157-25.2434 8.9449-67.5457-10.1691-99.8424z" fill="#2f2e41"/>
  <path d="M624.5243 526.7251l-66.994 46.5236s-39.0798 40.9408-11.1656 40.9408 39.0798-35.358 39.0798-35.358l85.6034-37.2188z" fill="#ffb8b8"/>
  <path d="M651.508 345.2832s-58.6198 181.442-40.0103 190.7466 59.5502 14.8876 59.5502 14.8876z" fill="#d0cde1"/>
  <path d="M651.508 345.2832s-58.6198 181.442-40.0103 190.7466 59.5502 14.8876 59.5502 14.8876z" opacity=".1"/>
  <path d="M855.9718 763.1158l-58.2132 100.8273-11.0906-6.4023c-21.1957-81.3116-46.7626-178.2221-46.7626-178.2221l-63.9984 114.275-82.683-47.7396c19.7901-42.6057 53.6278-142.8331 53.6278-142.8331l150.744-76.2976s48.3824 29.775 50.2423 102.353 1.8598 115.3806 1.8598 115.3806 2.4598 7.071 6.2739 18.6588z" fill="#2f2e41"/>
  <circle cx="688.7268" cy="250.3751" r="48.3845" fill="#ffb8b8"/>
  <path d="M687.7964 290.3853s11.1656 35.358 0 48.3846 61.411-18.6095 61.411-18.6095-26.0531-37.2188-18.6094-53.9673z" fill="#ffb8b8"/>
  <path d="M756.6005 298.0934a47.6885 47.6885 0 01-4.6016 6.249c-1.861 1.861-13.0266 3.7219-14.8876 7.4438s-29.3013 9.0271-29.3013 9.0271l-9.7785 3.9995s-46.5235 11.1656-46.5235 20.4704-3.722 37.2188-3.722 37.2188-14.8875 16.7485-5.5828 57.6892c3.5852 15.775 8.5824 46.3765 5.78 78.8098-4.4708 51.7414-17.6459 107.5747-3.919 111.0064 22.3313 5.5829 85.6033 7.4438 106.0737-20.4703s22.3313-52.1064 44.6627-53.9674-3.722-78.1596-3.722-78.1596l27.9142-182.3724s-46.625-16.22-62.3923 3.0557z" fill="#d0cde1"/>
  <path d="M700.4021 588.7344h92.8201a324.6426 324.6426 0 000-110.67h-92.82a199.1327 199.1327 0 010 110.67z" fill="currentColor"/>
  <path d="M719.7048 515.7768a22.2184 22.2184 0 0119.2299 1.4457c4.8769 2.7252 9.3014 6.0532 14.961 6.9217a23.1315 23.1315 0 0013.582-2.0755c5.4071-2.6437 8.7446-7.7325 13.3737-11.3825 2.597-2.0477-1.0642-5.6644-3.6363-3.6363-4.5212 3.565-7.7452 8.7494-13.2527 10.9397-5.8963 2.3448-11.6356 1.1483-16.9835-1.9328-4.311-2.4837-8.3285-5.3263-13.278-6.4069a27.1543 27.1543 0 00-15.3631 1.1681c-3.075 1.1431-1.7444 6.1155 1.367 4.9588zM719.7048 539.7752a22.2184 22.2184 0 0119.2299 1.4457c4.8769 2.7251 9.3014 6.0531 14.961 6.9216a23.1314 23.1314 0 0013.582-2.0755c5.4071-2.6436 8.7446-7.7324 13.3737-11.3824 2.597-2.0478-1.0642-5.6645-3.6363-3.6363-4.5212 3.5649-7.7452 8.7494-13.2527 10.9396-5.8963 2.3449-11.6356 1.1484-16.9835-1.9327-4.311-2.4837-8.3285-5.3263-13.278-6.4069a27.1544 27.1544 0 00-15.3631 1.168c-3.075 1.1432-1.7444 6.1156 1.367 4.9589z" fill="#f2f2f2"/>
  <path d="M853.4203 411.3467l-66.994 46.5235s-39.0798 40.9408-11.1657 40.9408 39.0798-35.358 39.0798-35.358l85.6034-37.2188z" fill="#ffb8b8"/>
  <path d="M738.3277 204.7599L699.5 184.4216l-24.3605 3.78a43.5498 43.5498 0 00-35.797 33.4179l-4.5552 20.119 27.6153-1.0622 7.7147-18.0009v17.7043l12.7423-.4902 7.3958-28.6584 4.6222 30.5074 45.299-.9245z" fill="#2f2e41"/>
  <path d="M805.9662 298.7596l13.0266-3.722s132.127 53.9674 128.4051 100.491 1.861 46.5236-20.4704 48.3845-87.4643-20.4703-85.6033-24.1922 14.8875-22.3313 14.8875-22.3313l-50.2455-39.0798z" fill="#d0cde1"/>
  <circle cx="737.1113" cy="250.3751" r="7.4438" fill="#ffb8b8"/>
  <path d="M810.2504 374.6223c48.5651-2.62 97.8058 4.2745 145.5863-7.478 3.4621-.8516 1.9958-6.1982-1.4735-5.3449-47.2602 11.6246-96.0693 4.688-144.1128 7.28-3.548.1914-3.5704 5.7355 0 5.5428z" fill="#3f3d56"/>
  <path d="M1024.6236 455.421l77.0246-51.7957a324.6422 324.6422 0 00-61.7562-91.837l-77.0246 51.7956a199.1328 199.1328 0 0161.7562 91.837z" fill="currentColor"/>
  <path d="M1005.17 391.2416a22.2184 22.2184 0 0116.7641-9.531c5.5677-.46 11.0964-.1673 16.2775-2.6048a23.1314 23.1314 0 0010.1125-9.3014c3.0118-5.211 2.9417-11.2963 4.7462-16.9082 1.0124-3.1486-4.0439-4.1067-5.0466-.9884-1.7625 5.4811-1.5448 11.5824-4.8929 16.4733-3.5844 5.236-9.0147 7.4458-15.1718 7.8732-4.9633.3446-9.8834.2276-14.5936 2.0928a27.1544 27.1544 0 00-12.097 9.5423c-1.9137 2.6644 1.965 6.0482 3.9016 3.3521zM1019.0398 411.8672a22.2184 22.2184 0 0116.7642-9.531c5.5677-.46 11.0963-.1672 16.2775-2.6047a23.1315 23.1315 0 0010.1125-9.3014c3.0118-5.211 2.9417-11.2963 4.7462-16.9082 1.0124-3.1485-4.044-4.1067-5.0466-.9884-1.7625 5.4812-1.5448 11.5824-4.893 16.4733-3.5843 5.236-9.0147 7.4458-15.1718 7.8733-4.9632.3445-9.8834.2275-14.5935 2.0928a27.1544 27.1544 0 00-12.097 9.5423c-1.9138 2.6644 1.965 6.0482 3.9015 3.352z" fill="#f2f2f2"/>
  <path fill="#3f3d56" d="M.3277 50.5642l389.2916 1.273-.3278 100.2282L0 150.7924z"/>
  <circle cx="46.6868" cy="100.6788" r="27.2719" fill="currentColor"/>
  <path fill="#fff" d="M103.9793 77.8721l112.8304.369-.0262 8.0211-112.8304-.369zM103.9164 97.1228l248.6546.8132-.0263 8.0211-248.6545-.8131zM103.8534 116.3734l248.6546.8132-.0263 8.0211-248.6545-.8131z"/>
  <path fill="#3f3d56" d="M.3277 317.5642l389.2915 1.273-.3277 100.2282L0 417.7924z"/>
  <circle cx="46.6868" cy="367.6789" r="27.2719" fill="currentColor"/>
  <path fill="#fff" d="M103.9793 344.8721l112.8304.369-.0262 8.0211-112.8304-.369zM103.9164 364.1228l248.6546.8132-.0263 8.0211-248.6545-.8131zM103.8534 383.3734l248.6546.8132-.0263 8.0211-248.6546-.8131z"/>
  <path fill="#3f3d56" d="M483.2965 284.3917L94.005 285.6648l-.3278-100.2282 389.2916-1.273z"/>
  <circle cx="436.6097" cy="234.2783" r="27.2719" fill="currentColor"/>
  <path fill="#fff" d="M379.3434 219.4926l-112.8304.369-.0262-8.0211 112.8304-.369zM379.4064 238.7433l-248.6546.8131-.0262-8.0211 248.6545-.8132zM379.4693 257.994l-248.6546.8132-.0262-8.0212 248.6545-.8131z"/>
</svg>