<svg xmlns="http://www.w3.org/2000/svg" data-name="Layer 1" width="876.2717" height="661.4728" viewBox="0 0 876.2717 661.4728">
  <path d="M504.97 32.194c7.5163 15.9952-8.4106 20.5258-26.6551 29.099s-31.8977 17.9425-39.414 1.9474-13.6147-47.7427 12.1953-59.871c26.6992-12.546 46.3576 12.8295 53.8739 28.8246z" fill="#2f2e41"/>
  <circle cx="467.7463" cy="39.0891" r="24.561" fill="#ffb8b8"/>
  <path d="M589.4262 148.0123c-.85-1.11-1.7002-2.2-2.56-3.26q-1.6648-2.07-3.3501-4.01c-12.73-14.69-26.27-23.94-41.1797-24.93h-.02l-.2203-.02-29.71 28.96-10.1 9.84.2202.54 5.4497 13.57h95.4902a234.834 234.834 0 00-14.02-20.69zM441.0379 48.9773l8.792-4.1314-1.2248-12.6833 5.8791 10.4962 4.2022-1.9747-.7144-7.3986 3.4296 6.1228 31.2245-14.6726a26 26 0 00-34.589-12.4739l-4.5254 2.1265a26 26 0 00-12.4738 34.589z" fill="#2f2e41"/>
  <path d="M644.526 494.8002H131.6877a16.5187 16.5187 0 01-16.5-16.5V170.1463a12.1018 12.1018 0 0112.0878-12.0883H648.729a12.3111 12.3111 0 0112.2972 12.2973v307.9449a16.5187 16.5187 0 01-16.5 16.5z" fill="#f2f2f2"/>
  <path d="M147.6876 478.3002H628.526a16 16 0 0016-16V200.7523a16 16 0 00-16-16H147.6876a16 16 0 00-16 16v261.5479a16 16 0 0016 16z" fill="#fff"/>
  <path d="M660.7963 169.2025H114.956v-8.4003a16.5738 16.5738 0 0116.56-16.5498h512.7203a16.5737 16.5737 0 0116.56 16.5498z" fill="currentColor"/>
  <circle cx="145.0514" cy="156.7523" r="4.2834" fill="#fff"/>
  <circle cx="161.3101" cy="156.7523" r="4.2834" fill="#fff"/>
  <circle cx="177.569" cy="156.7523" r="4.2834" fill="#fff"/>
  <path d="M403.1102 421.579h-43a9.5108 9.5108 0 01-9.5-9.5v-43a9.5108 9.5108 0 019.5-9.5h43a9.5108 9.5108 0 019.5 9.5v43a9.5108 9.5108 0 01-9.5 9.5zm-43-60a7.5084 7.5084 0 00-7.5 7.5v43a7.5084 7.5084 0 007.5 7.5h43a7.5084 7.5084 0 007.5-7.5v-43a7.5084 7.5084 0 00-7.5-7.5z" fill="#ccc"/>
  <path d="M394.6102 409.579h-26a3.0033 3.0033 0 01-3-3v-32a3.0033 3.0033 0 013-3h18.8394a3.0073 3.0073 0 011.8794.6617l7.1602 5.7539a2.9844 2.9844 0 011.121 2.3384v26.246a3.0033 3.0033 0 01-3 3zm-26-36a1.0013 1.0013 0 00-1 1v32a1.0013 1.0013 0 001 1h26a1.0013 1.0013 0 001-1v-26.246a.9946.9946 0 00-.3735-.7793l-7.1611-5.7544a1.002 1.002 0 00-.626-.2202z" fill="#ccc"/>
  <path d="M389.6102 385.579h-16a1 1 0 010-2h16a1 1 0 010 2zM389.6102 391.579h-16a1 1 0 010-2h16a1 1 0 010 2zM389.6102 397.579h-16a1 1 0 010-2h16a1 1 0 010 2zM505.1102 421.579h-43a9.5108 9.5108 0 01-9.5-9.5v-43a9.5108 9.5108 0 019.5-9.5h43a9.5108 9.5108 0 019.5 9.5v43a9.5108 9.5108 0 01-9.5 9.5zm-43-60a7.5084 7.5084 0 00-7.5 7.5v43a7.5084 7.5084 0 007.5 7.5h43a7.5084 7.5084 0 007.5-7.5v-43a7.5084 7.5084 0 00-7.5-7.5z" fill="#ccc"/>
  <path d="M497.6102 401.579h-28a3.0033 3.0033 0 01-3-3v-16a3.0033 3.0033 0 013-3h28a3.0033 3.0033 0 013 3v16a3.0033 3.0033 0 01-3 3zm-28-20a1.001 1.001 0 00-1 1v16a1.001 1.001 0 001 1h28a1.001 1.001 0 001-1v-16a1.001 1.001 0 00-1-1z" fill="#ccc"/>
  <path d="M483.6102 393.2173a3.0034 3.0034 0 01-1.5898-.4527l-14.9404-9.3374a1.0003 1.0003 0 011.0605-1.6963l14.9404 9.3374a1.0055 1.0055 0 001.0596 0l14.9395-9.3374a1.0003 1.0003 0 011.0605 1.6963l-14.9394 9.3374a3.0043 3.0043 0 01-1.5909.4527zM301.1102 421.579h-43a9.5108 9.5108 0 01-9.5-9.5v-43a9.5108 9.5108 0 019.5-9.5h43a9.5108 9.5108 0 019.5 9.5v43a9.5108 9.5108 0 01-9.5 9.5zm-43-60a7.5084 7.5084 0 00-7.5 7.5v43a7.5084 7.5084 0 007.5 7.5h43a7.5084 7.5084 0 007.5-7.5v-43a7.5084 7.5084 0 00-7.5-7.5z" fill="#ccc"/>
  <path d="M293.6102 401.579h-28a3.0033 3.0033 0 01-3-3v-16a3.0033 3.0033 0 013-3h28a3.0033 3.0033 0 013 3v16a3.0033 3.0033 0 01-3 3zm-28-20a1.001 1.001 0 00-1 1v16a1.001 1.001 0 001 1h28a1.001 1.001 0 001-1v-16a1.001 1.001 0 00-1-1z" fill="#ccc"/>
  <path d="M289.1723 401.579h-20.124a1.9996 1.9996 0 01-1.732-3l6.0615-10.5a2.0002 2.0002 0 013.4644 0l3.915 6.7813 2.268-3.9287a2.0002 2.0002 0 013.4644 0l4.415 7.6475a2 2 0 01-1.7324 3zm0-2l-4.415-7.6474-3.1338 5.4287a.9999.9999 0 01-.8662.5.9999.9999 0 01-.8663-.5l-4.7807-8.2812-6.062 10.5z" fill="#ccc"/>
  <circle cx="290.6101" cy="385.5789" r="2" fill="#ccc"/>
  <path fill="#ffb8b8" d="M768.825 648.15l-12.26-.001-5.832-47.288 18.094.001-.002 47.288z"/>
  <path d="M771.9515 660.0339l-39.5305-.0015v-.5a15.386 15.386 0 0115.3864-15.3862h.001l24.1438.001z" fill="#2f2e41"/>
  <path fill="#ffb8b8" d="M818.825 648.15l-12.26-.001-5.832-47.288 18.094.001-.002 47.288z"/>
  <path d="M821.9515 660.0339l-39.5305-.0015v-.5a15.386 15.386 0 0115.3864-15.3862h.001l24.1438.001zM815.1497 627.6503l-11.3545-3.454a4.4932 4.4932 0 01-3.1657-3.833l-10.586-100.3262a.4798.4798 0 00-.4785-.4473.4693.4693 0 00-.5105.4092l-17.731 97.1992a4.5004 4.5004 0 01-5.3347 3.5996l-14.5114-2.9893a4.5161 4.5161 0 01-3.5818-4.7119l10.7854-159.3125 73.138-7.8916-10.868 177.7266a4.5046 4.5046 0 01-4.4844 4.2275 4.5261 4.5261 0 01-1.3169-.1963z" fill="#2f2e41"/>
  <circle cx="815.0803" cy="290.4869" r="24.561" fill="#ffb8b8"/>
  <path d="M758.5684 454.7197l15.8582-99.8511a37.8575 37.8575 0 0148.0054-30.3994 37.7432 37.7432 0 0126.601 43.2622l-16.591 89.1719z" fill="currentColor"/>
  <path d="M821.8608 472.5856a10.0558 10.0558 0 001.747-15.32l16.3962-31.7512-18.4648 1.9704-12.7393 29.8495a10.1103 10.1103 0 0013.061 15.2514z" fill="#ffb8b8"/>
  <path d="M825.3718 451.665a4.5055 4.5055 0 01-2.4265-1.1507l-6.2733-5.7967a4.5147 4.5147 0 01-1.0918-5.0541l12.5375-29.7182-1.7786-58.7198a14.4965 14.4965 0 1128.727 3.9186l3.041 36.9122a46.3735 46.3735 0 01-8.9377 31.3968l-19.552 26.4324a4.505 4.505 0 01-3.1952 1.8038 4.4545 4.4545 0 01-1.0504-.0242z" fill="currentColor"/>
  <path d="M673.641 277.1051a10.0557 10.0557 0 0013.4264 7.582l22.8457 27.4782 5.3848-17.7719-22.5203-23.3691a10.1103 10.1103 0 00-19.1367 6.0808z" fill="#ffb8b8"/>
  <path d="M691.5369 288.495a4.5056 4.5056 0 012.0058-1.7857l7.7838-3.5168a4.5147 4.5147 0 015.0799.9653l22.478 23.132 54.7662 21.2567a14.4965 14.4965 0 11-14.809 24.9257l-35.1766-11.5915a46.3735 46.3735 0 01-25.4274-20.4718l-16.7172-28.3105a4.505 4.505 0 01-.4154-3.6455 4.4545 4.4545 0 01.4319-.9579z" fill="currentColor"/>
  <path opacity=".1" d="M835.002 375.652l-1 32-18.422 32.011 15.382-35.673 4.04-28.338z"/>
  <path d="M812.2663 295.1027a6.423 6.423 0 01-7.0305-4.7023 9.7643 9.7643 0 00-6.9508-7.2736c-4.5055-1.0295-10.0121 1.0913-13.3135-2.3223a6.6375 6.6375 0 01-1.5754-5.8423c.608-3.3172 2.981-5.8232 5.5633-7.8275a34.0623 34.0623 0 0118.866-7.0507 67.6766 67.6766 0 0110.621.5284 47.0093 47.0093 0 0110.8636 1.9854 25.576 25.576 0 0116.0017 18.6802 29.528 29.528 0 01-6.057 24.1303 31.7022 31.7022 0 01-12.1607 9.2588 4.7443 4.7443 0 01-3.6062.1829c-2.9573-1.1759-2.474-4.8392-1.1257-7.2826 1.443-2.6148 3.6634-5.1464 2.5029-8.3286a6.302 6.302 0 00-3.1271-3.3662c-2.94-1.4992-6.2282-1.1445-9.3888-.7795z" fill="#2f2e41"/>
  <path d="M665.4332 308.9726h-304a16.5187 16.5187 0 01-16.5-16.5v-65a16.5187 16.5187 0 0116.5-16.5h304a16.519 16.519 0 0116.5 16.5v65a16.519 16.519 0 01-16.5 16.5z" fill="#fff"/>
  <path d="M665.433 309.4728h-304a17.0192 17.0192 0 01-17-17v-65a17.0192 17.0192 0 0117-17h304a17.0192 17.0192 0 0117 17v65a17.0192 17.0192 0 01-17 17zm-304-97a15.017 15.017 0 00-15 15v65a15.017 15.017 0 0015 15h304a15.017 15.017 0 0015-15v-65a15.017 15.017 0 00-15-15z" fill="#3f3d56"/>
  <path d="M628.433 292.9728h-230a16.5187 16.5187 0 01-16.5-16.5v-34a16.5187 16.5187 0 0116.5-16.5h230a16.5187 16.5187 0 0116.5 16.5v34a16.5187 16.5187 0 01-16.5 16.5z" fill="#f2f2f2"/>
  <circle cx="447.928" cy="254.9148" r="19.7323" fill="#ff6584"/>
  <path d="M614.14 290.9814l-27.8525-23.3596-27.3715-22.9564a4.0003 4.0003 0 00-5.1529.01L526.48 267.737l-6.664 5.6333-10.0484-8.4273-30.537-25.6109a3.9996 3.9996 0 00-5.1524.01l-30.438 25.7283-30.917 26.1334a1 1 0 00.6474 1.7638l63.3868-.1222 20.064-.0386-.1963.166 59.8076-.1152 57.0669-.11a.9999.9999 0 00.6406-1.7662z" fill="#3f3d56"/>
  <path d="M875.2717 661.4728h-192a1 1 0 010-2h192a1 1 0 010 2z" fill="#ccc"/>
  <path d="M604.056 131.9123a11.221 11.221 0 00-7.25-5.1 10.3011 10.3011 0 00-1.6596-.21l-76.1904-68.12a9.015 9.015 0 00-5.6299-2.69 7.6699 7.6699 0 00-1.27-.04 9.055 9.055 0 00-5.96 15.48l29.17 25.43 47.8998 41.75a11.9155 11.9155 0 00.3501 2.33 11.266 11.266 0 009.67 8.37 11.0921 11.0921 0 006.0502-1 11.4066 11.4066 0 003.88-2.97c.1098-.13.21-.25.31-.39a11.2928 11.2928 0 00.6299-12.84zM473.7363 197.5623l-.71-28.86-.6001-23.95-.4102-16.76-.81-32.67a9.0457 9.0457 0 00-15.71-5.25 6.9233 6.9233 0 00-.75.96 8.9357 8.9357 0 00-1.5601 6.05l1.7803 47.67.8901 23.95 1.1396 30.55a12.0475 12.0475 0 00-.8896 1.41 11.248 11.248 0 00-.71 8.84 11.3114 11.3114 0 0015.5596 6.63 11.3007 11.3007 0 002.7802-18.57z" fill="#ffb8b8"/>
  <path d="M542.3364 115.8123l-7.0704-19.15-11.4399-31.02a16.0055 16.0055 0 00-9.9502-9.68 11.445 11.445 0 00-.5498-.17 15.984 15.984 0 00-13.2397 1.82l-38.5303 24.44a16.0932 16.0932 0 00-5.27 21.75 276.323 276.323 0 0015.73 24.19c4.4902 6.11 12.85 6.76 14.3003 16.76h28.4097l28.7602-25.82z" fill="#ccc"/>
  <circle cx="101.1646" cy="326.6823" r="23.1717" fill="#a0616a"/>
  <path d="M158.0513 310.7321q.3425.2726.664.578a10.3802 10.3802 0 01-.417 15.4836 9.7218 9.7218 0 01-.814.6134l1.5683 52.9449a8.0613 8.0613 0 01-5.545 7.867l-.0955.0205-42.9887 4.578a8.8985 8.8985 0 11-1.7222-17.7128l30.6443-2.6988 5.2996-45.851a9.8757 9.8757 0 01-.9715-.99 10.38 10.38 0 0114.3778-14.8328zM139.328 649.174h11.567l5.502-44.613h-17.071l.002 44.613z" fill="#a0616a"/>
  <path d="M136.3782 645.3978l22.778-.0009h.0009a14.5157 14.5157 0 0114.516 14.5159v.4717l-37.2943.0014z" fill="#2f2e41"/>
  <path fill="#a0616a" d="M24.366 633.182l9.938 5.917 27.553-35.517-14.668-8.733-22.823 38.333z"/>
  <path d="M23.763 628.4283l19.5716 11.6529.0008.0004a14.5157 14.5157 0 015.0458 19.899l-.2414.4053-32.0444-19.0794zM153.624 633.4166h-12.9518a4.2377 4.2377 0 01-4.2215-3.7967l-13.0571-122.7374a1.4154 1.4154 0 00-2.6972-.433L97.141 558.6082l-41.7036 68.0027a4.2656 4.2656 0 01-5.3289 1.6657l-16.6602-7.33a4.2467 4.2467 0 01-1.9348-6.0641l38.337-64.1921 11.7577-54.0852c-3.698-23.455 12.155-58.326 12.3158-58.6762l.0785-.1704L137.67 420.691l.219.268c17.2212 56.5138 27.715 117.3323 19.9668 208.5679a4.2742 4.2742 0 01-4.2319 3.8897z" fill="#2f2e41"/>
  <path d="M92.2433 443.4735l-.2034-.4275c-.0972-.2045-9.807-20.6836-17.292-42.5714a32.2851 32.2851 0 012.2386-25.8735A32.6374 32.6374 0 0197.799 358.597a32.677 32.677 0 0137.9277 19.5697c5.9373 14.8471 4.045 30.6946 2.2643 43.1573l-.0354.2496-.2272.1088z" fill="#3f3d56"/>
  <path d="M129.2596 313.5931H92.4658v-16.0383c8.0758-3.2084 15.9784-5.937 20.7555 0a16.0384 16.0384 0 0116.0383 16.0383z" fill="#2f2e41"/>
  <path d="M90.4287 294.7245c-21.996 0-28.1528 27.5712-28.1528 43.1255 0 8.6744 3.923 11.777 10.0876 12.8268l2.177-11.611 5.099 12.1106c1.7317.0087 3.5509-.0249 5.4368-.0599l1.7289-3.5598 3.8552 3.496c15.4409.023 27.9206 2.2738 27.9206-13.2027 0-15.5543-5.3993-43.1255-28.1523-43.1255z" fill="#2f2e41"/>
  <path d="M193 661.4728H1a1 1 0 110-2h192a1 1 0 010 2z" fill="#ccc"/>
  <path d="M196.6102 332.4728h-43a9.5108 9.5108 0 01-9.5-9.5v-43a9.5108 9.5108 0 019.5-9.5h43a9.5108 9.5108 0 019.5 9.5v43a9.5108 9.5108 0 01-9.5 9.5z" fill="#fff"/>
  <path d="M196.6102 332.4728h-43a9.5108 9.5108 0 01-9.5-9.5v-43a9.5108 9.5108 0 019.5-9.5h43a9.5108 9.5108 0 019.5 9.5v43a9.5108 9.5108 0 01-9.5 9.5zm-43-60a7.5084 7.5084 0 00-7.5 7.5v43a7.5084 7.5084 0 007.5 7.5h43a7.5084 7.5084 0 007.5-7.5v-43a7.5084 7.5084 0 00-7.5-7.5z" fill="#3f3d56"/>
  <path d="M189.1102 314.9728h-28a3.0033 3.0033 0 01-3-3v-21a3.0033 3.0033 0 013-3h7.8824a2.9812 2.9812 0 012.5551 1.4272l2.1983 3.5728h15.3642a3.0033 3.0033 0 013 3v16a3.0033 3.0033 0 01-3 3z" fill="currentColor"/>
  <path d="M188.1995 325.582q.2098.384.3876.7902a10.3802 10.3802 0 01-6.3927 14.1086 9.7202 9.7202 0 01-.988.2495l-19.0995 49.4048a8.0613 8.0613 0 01-8.1632 5.0989l-.096-.0182-41.3966-12.462a8.8985 8.8985 0 115.286-16.9932l29.2904 9.4038 22.6764-40.2017a9.8762 9.8762 0 01-.5113-1.2895 10.38 10.38 0 0119.0069-8.0913z" fill="#a0616a"/>
</svg>