<svg xmlns="http://www.w3.org/2000/svg" data-name="Layer 1" width="728.3465" height="523.5906" viewBox="0 0 728.3465 523.5906">
  <path d="M711.3465 523h-437a17.0192 17.0192 0 01-17-17V17a17.0192 17.0192 0 0117-17h437a17.0192 17.0192 0 0117 17v489a17.0192 17.0192 0 01-17 17zm-437-521a15.017 15.017 0 00-15 15v489a15.017 15.017 0 0015 15h437a15.017 15.017 0 0015-15V17a15.017 15.017 0 00-15-15z" fill="#3f3d56"/>
  <path fill="#3f3d56" d="M258.3465 41.5903h469v2h-469z"/>
  <circle cx="281.3465" cy="22" r="8" fill="currentColor"/>
  <circle cx="306.3465" cy="22" r="8" fill="currentColor"/>
  <circle cx="331.3465" cy="22" r="8" fill="currentColor"/>
  <path d="M648.8465 115h-312a13 13 0 010-26h312a13 13 0 010 26zm-312-24a11 11 0 000 22h312a11 11 0 000-22z" fill="#3f3d56"/>
  <path d="M571.7008 217.5906h-142a8 8 0 010-16h142a8 8 0 010 16zM653.7008 244.5906h-224a8 8 0 010-16h224a8 8 0 010 16zM376.4921 246.0906h-43a9.5108 9.5108 0 01-9.5-9.5v-27a9.5108 9.5108 0 019.5-9.5h43a9.5108 9.5108 0 019.5 9.5v27a9.5108 9.5108 0 01-9.5 9.5zm-43-44a7.5084 7.5084 0 00-7.5 7.5v27a7.5084 7.5084 0 007.5 7.5h43a7.5084 7.5084 0 007.5-7.5v-27a7.5084 7.5084 0 00-7.5-7.5zM571.7008 312.5906h-142a8 8 0 010-16h142a8 8 0 010 16zM653.7008 339.5906h-224a8 8 0 110-16h224a8 8 0 010 16zM376.4921 341.0906h-43a9.5108 9.5108 0 01-9.5-9.5v-27a9.5108 9.5108 0 019.5-9.5h43a9.5108 9.5108 0 019.5 9.5v27a9.5108 9.5108 0 01-9.5 9.5zm-43-44a7.5084 7.5084 0 00-7.5 7.5v27a7.5084 7.5084 0 007.5 7.5h43a7.5084 7.5084 0 007.5-7.5v-27a7.5084 7.5084 0 00-7.5-7.5z" fill="#ccc"/>
  <path d="M571.7008 407.5906h-142a8 8 0 010-16h142a8 8 0 010 16zM653.7008 434.5906h-224a8 8 0 010-16h224a8 8 0 010 16zM376.4921 436.0906h-43a9.5108 9.5108 0 01-9.5-9.5v-27a9.5108 9.5108 0 019.5-9.5h43a9.5108 9.5108 0 019.5 9.5v27a9.5108 9.5108 0 01-9.5 9.5z" fill="#f2f2f2"/>
  <path d="M354.9921 237.8289l-2.3154-2.0888c-8.2226-7.5493-13.6511-12.4492-13.6511-18.553a8.6833 8.6833 0 018.7816-8.835 9.4454 9.4454 0 017.185 3.3735 9.445 9.445 0 017.1849-3.3734 8.6833 8.6833 0 018.7816 8.835c0 6.1037-5.4286 11.0036-13.6511 18.553zM354.9921 332.8289l-2.3154-2.0888c-8.2226-7.5493-13.6511-12.4492-13.6511-18.553a8.6833 8.6833 0 018.7816-8.835 9.4454 9.4454 0 017.185 3.3736 9.445 9.445 0 017.1849-3.3735 8.6833 8.6833 0 018.7816 8.835c0 6.1037-5.4286 11.0036-13.6511 18.553z" fill="currentColor"/>
  <path d="M173.3307 316.8475h-43a9.5108 9.5108 0 01-9.5-9.5v-27a9.5108 9.5108 0 019.5-9.5h43a9.5108 9.5108 0 019.5 9.5v27a9.5108 9.5108 0 01-9.5 9.5zm-43-44a7.5084 7.5084 0 00-7.5 7.5v27a7.5084 7.5084 0 007.5 7.5h43a7.5084 7.5084 0 007.5-7.5v-27a7.5084 7.5084 0 00-7.5-7.5z" fill="#3f3d56"/>
  <path d="M151.8307 308.5858l-2.3154-2.0887c-8.2227-7.5494-13.6511-12.4493-13.6511-18.553a8.6833 8.6833 0 018.7816-8.835 9.4454 9.4454 0 017.185 3.3735 9.445 9.445 0 017.185-3.3735 8.6833 8.6833 0 018.7815 8.835c0 6.1038-5.4286 11.0037-13.651 18.553z" fill="currentColor"/>
  <path fill="#ffb8b8" d="M126.965 512.106l11.122-2.646-4.912-44.158-16.415 3.905 10.205 42.899z"/>
  <path d="M161.9925 514.6852L127.038 523l-3.2126-13.5051 21.4493-5.1023a13.882 13.882 0 0116.7177 10.2926zM116.048 483.6722l-24.1553-82.7861 30.185-7.4873 17.708 87.6762a4.4998 4.4998 0 01-4.277 5.3892l-15.0071.4458a6.1 6.1 0 01-.135.002 4.5006 4.5006 0 01-4.3186-3.2398z" fill="#2f2e41"/>
  <path fill="#ffb8b8" d="M58.09 512.384l11.432-.001 5.437-44.096-16.873.002.004 44.095z"/>
  <path d="M91.571 522.9968L55.6414 523l-.0012-13.882 22.0478-.002a13.882 13.882 0 0113.8832 13.8807zM56.0827 495.2508a4.4155 4.4155 0 01-1.3445-3.1294l-10.4156-82.585a4.5065 4.5065 0 014.4673-4.5224l23.2483-.1685h.0332a4.512 4.512 0 014.499 4.4312l1.2359 81.3545a4.497 4.497 0 01-4.3958 4.5659l-14.1128 1.3413c-.0217.0005-.0434.0005-.0652.0005a4.4676 4.4676 0 01-3.1498-1.288z" fill="#2f2e41"/>
  <circle cx="61.0647" cy="197.3479" r="24.561" fill="#ffb8b8"/>
  <path d="M28.7077 405.2225c-15.9805-12.4863-15.8113-27.0532-10.3585-46.5098 1.5362-5.481 3.1941-11.0361 4.9492-16.9174 8.155-27.3248 17.398-58.296 13.889-83.8682l.4953-.0679-.4953.0679c-.9612-7.004 1.4887-14.3711 6.7211-20.212 5.2327-5.8417 12.2757-9.0785 19.3555-8.896 7.0674.1886 13.9397 3.8013 18.8543 9.9127 4.8906 6.0815 7.2248 27.4658 7.9167 30.5307 3.1765 14.067 5.0938 22.5577 6.4688 36.1026 1.6262 16.0132 21.1025 63.891 27.3088 71.9199a18.9997 18.9997 0 013.6768 15.1328 17.805 17.805 0 01-8.4554 12.1353 101.6483 101.6483 0 01-32.706 12.871 80.1744 80.1744 0 01-15.227 1.4654c-15.857 0-31.0083-4.7715-42.3933-13.667z" fill="currentColor"/>
  <path d="M130.845 312.6898a9.377 9.377 0 00-14.0484-3.0627l-18.6113-10.6198-9.2121 9.736 26.4933 14.628a9.4278 9.4278 0 0015.3786-10.6816z" fill="#ffb8b8"/>
  <path d="M102.4735 319.8885L69.1163 309.409a22.9615 22.9615 0 01-16.0092-20.8281l-1.4353-32.4111a13.5715 13.5715 0 1127.1233-.1827l-.9175 29.8199 35.5017 14.4785a4.5003 4.5003 0 011.978 6.7602L107.5 318.1888a4.4883 4.4883 0 01-5.0266 1.6997zM21.482 227.911c1.1224-6.731 1.0811-13.7076 1.041-20.4546-.0107-1.8316-.0217-3.6626-.0104-5.4903.0522-8.4936.5793-17.496 4.0517-25.7836 3.7793-9.0196 10.7779-15.5328 18.7212-17.4224 8.9556-2.1328 18.6731 2.582 21.5987 10.3452a15.007 15.007 0 119.1486 27.9692l-.3752.0332-2.9265-7.6054c-.0166.1333-.0325.268-.0486.4038-.1863 1.5771-.3789 3.2075-1.6809 4.1494-1.6255 1.1758-3.6499 5.0454-3.0583 8.9658a33.8022 33.8022 0 001.642 5.8814 32.2768 32.2768 0 011.7422 6.4795 11.0649 11.0649 0 01-2.0722 8.0136 6.1864 6.1864 0 01-4.2386 2.4322L32.029 229.239l-1.4748-11.0186-9.3833 11.5567z" fill="#2f2e41"/>
  <path d="M193 523.5906H1a1 1 0 010-2h192a1 1 0 010 2z" fill="#ccc"/>
</svg>